<?xml version="1.0" standalone="no"?>
<!DOCTYPE svg PUBLIC "-//W3C//DTD SVG 20010904//EN"
 "http://www.w3.org/TR/2001/REC-SVG-20010904/DTD/svg10.dtd">
<svg version="1.0" xmlns="http://www.w3.org/2000/svg"
 width="525.000000pt" height="525.000000pt" viewBox="0 0 525.000000 525.000000"
 preserveAspectRatio="xMidYMid meet">
<metadata>
Created by potrace 1.11, written by Peter Selinger 2001-2013
</metadata>
<g transform="translate(0.000000,525.000000) scale(0.100000,-0.100000)"
fill="#000000" stroke="none">
<path d="M2439 5105 c-2 -1 -28 -5 -57 -8 -30 -3 -56 -8 -59 -11 -3 -2 -17 0
-31 5 -15 6 -23 7 -19 2 8 -7 -153 -42 -215 -46 -14 -1 -24 -5 -22 -9 2 -3
-15 -9 -38 -13 -51 -9 -257 -79 -310 -106 -21 -11 -38 -17 -38 -13 0 4 -7 1
-15 -6 -8 -6 -20 -8 -27 -4 -7 4 -10 3 -5 -1 9 -10 -141 -87 -154 -79 -5 3 -8
0 -7 -8 2 -7 -3 -12 -9 -11 -7 2 -13 -2 -13 -8 0 -6 -7 -8 -17 -5 -10 4 -14 4
-10 0 7 -8 -72 -60 -85 -56 -5 1 -8 -2 -8 -7 0 -13 -80 -62 -91 -56 -5 4 -8 2
-7 -3 4 -15 -44 -53 -59 -47 -8 2 -11 1 -8 -5 8 -13 -37 -52 -53 -45 -7 2 -11
1 -8 -4 8 -12 -21 -34 -33 -26 -7 3 -8 0 -5 -10 4 -9 3 -15 -2 -13 -5 2 -11
-1 -14 -7 -2 -5 -18 -21 -34 -35 -17 -14 -47 -42 -68 -62 -21 -21 -43 -38 -50
-38 -6 0 -9 -3 -5 -6 8 -8 -16 -33 -25 -27 -5 2 -8 -2 -8 -10 0 -8 -8 -21 -17
-28 -15 -12 -16 -12 -8 1 8 13 7 13 -8 1 -18 -15 -23 -26 -7 -16 27 17 5 -12
-76 -100 -17 -19 -29 -37 -26 -39 3 -3 -3 -8 -12 -12 -9 -3 -14 -10 -11 -14 3
-5 -5 -17 -18 -27 -13 -10 -25 -22 -28 -28 -2 -5 -8 -9 -12 -7 -4 1 -7 -5 -5
-14 2 -9 -3 -19 -11 -22 -9 -3 -11 0 -6 9 5 8 4 10 0 6 -14 -12 -15 -38 -2
-31 7 3 3 -1 -7 -10 -10 -8 -23 -13 -29 -9 -6 3 -7 1 -3 -6 4 -6 13 -9 19 -5
7 3 4 -1 -6 -9 -10 -9 -18 -18 -18 -21 1 -17 -13 -36 -28 -36 -11 0 -13 -3 -4
-8 10 -6 9 -13 -3 -30 -8 -12 -19 -20 -24 -17 -4 3 -6 -4 -3 -15 4 -15 0 -20
-13 -20 -16 0 -17 -2 -4 -10 11 -7 11 -10 2 -10 -7 0 -10 -5 -6 -11 4 -7 -2
-6 -17 1 -23 12 -23 12 -8 -6 21 -25 14 -51 -9 -32 -14 12 -14 10 -2 -12 13
-24 12 -24 -5 -10 -17 14 -17 14 -7 -6 8 -16 8 -26 -3 -41 -8 -11 -11 -24 -7
-28 4 -5 1 -4 -7 0 -11 6 -13 4 -7 -10 5 -15 4 -16 -8 -6 -11 9 -16 9 -22 0
-4 -7 -3 -9 3 -6 6 4 13 0 17 -8 3 -8 1 -17 -5 -20 -5 -4 -6 -12 -3 -18 4 -7
3 -9 -1 -4 -8 7 -35 -52 -37 -80 -1 -7 -5 -13 -9 -13 -4 0 -8 -8 -8 -17 -1
-40 -5 -52 -13 -46 -6 3 -8 -3 -7 -13 2 -11 -1 -26 -6 -34 -5 -8 -10 -24 -10
-35 0 -12 -7 -20 -17 -19 -10 1 -14 -4 -11 -12 3 -8 10 -14 17 -14 7 0 7 -3 1
-8 -9 -6 -14 -18 -19 -47 -1 -5 -4 -14 -7 -20 -4 -5 -5 -20 -4 -32 1 -12 -2
-20 -7 -17 -5 3 -6 -8 -3 -25 3 -16 0 -33 -5 -36 -6 -4 -7 -11 -4 -17 4 -6 2
-8 -4 -4 -6 3 -13 2 -17 -4 -3 -5 2 -10 12 -11 15 0 15 -2 -3 -9 -25 -10 -38
-37 -22 -46 7 -5 8 -2 3 6 -5 9 -4 11 3 6 8 -5 10 -2 6 8 -3 9 -2 16 4 16 6 0
9 -6 8 -12 -3 -24 -17 -37 -31 -31 -8 3 -15 0 -15 -7 0 -6 3 -9 8 -6 4 2 15
-2 25 -9 16 -11 16 -13 2 -19 -9 -3 -13 -2 -10 4 3 6 2 10 -2 10 -5 0 -14 -10
-22 -22 -13 -21 -13 -22 2 -9 12 9 17 10 17 2 0 -7 5 -9 12 -5 6 4 4 -3 -5
-16 -13 -19 -14 -27 -4 -39 11 -14 10 -14 -5 -2 -22 17 -23 8 -2 -13 10 -10
11 -16 3 -16 -9 0 -8 -4 1 -15 9 -10 9 -15 1 -15 -10 0 -15 13 -12 33 0 4 -3
7 -9 7 -5 0 -10 6 -10 14 0 8 -5 18 -10 21 -11 7 16 -71 31 -91 5 -6 3 -11 -6
-11 -8 0 -11 5 -8 11 3 6 2 8 -2 3 -5 -4 -18 1 -29 10 -15 13 -14 10 3 -10 14
-15 30 -27 38 -27 7 0 13 -4 13 -10 0 -5 -6 -7 -14 -4 -16 6 -29 -11 -34 -43
-2 -17 2 -23 15 -23 11 0 14 3 7 8 -14 9 -14 43 -1 35 6 -3 7 -1 3 5 -5 8 -2
10 9 6 14 -6 14 -8 -1 -19 -12 -8 -14 -14 -6 -19 17 -10 15 -26 -3 -26 -9 0
-12 -6 -9 -15 5 -13 9 -13 23 -3 13 10 14 10 4 -1 -6 -7 -9 -20 -6 -27 3 -8 0
-14 -6 -14 -6 0 -11 -5 -11 -11 0 -6 7 -8 18 -4 13 5 14 3 5 -6 -14 -14 -36
-2 -29 17 3 8 1 14 -4 14 -13 0 -13 -27 0 -35 6 -4 7 -11 4 -17 -4 -6 -10 -5
-15 3 -6 10 -9 10 -9 2 0 -6 4 -14 10 -18 5 -3 7 -12 3 -20 -3 -8 0 -15 5 -15
6 0 9 9 7 20 -3 13 0 18 7 14 7 -4 8 -3 4 4 -4 7 -2 12 3 12 14 0 14 -17 1
-25 -6 -4 -8 -10 -5 -15 3 -5 -3 -13 -12 -19 -10 -6 -13 -11 -6 -11 14 0 11
-23 -5 -43 -10 -12 -9 -16 3 -21 12 -4 14 -10 5 -25 -12 -24 -13 -31 -2 -31 5
0 9 7 10 15 1 8 3 22 4 30 2 19 14 19 22 0 3 -8 -1 -18 -9 -22 -13 -8 -15 -12
-15 -33 0 -5 -8 -7 -17 -3 -12 3 -10 0 5 -11 12 -10 19 -22 16 -28 -4 -7 -9
-6 -14 1 -3 7 -7 -2 -7 -20 0 -30 1 -30 12 -9 8 15 15 19 19 11 4 -6 12 -9 17
-6 17 11 9 -4 -16 -31 -13 -14 -22 -30 -19 -35 3 -5 0 -9 -7 -9 -7 0 -10 -3
-7 -6 4 -3 19 2 35 12 15 10 25 14 21 9 -4 -4 -2 -15 5 -24 10 -14 10 -14 -5
-3 -15 12 -17 11 -15 -7 1 -16 6 -20 22 -15 15 4 17 3 6 -5 -11 -7 -12 -13 -3
-23 9 -11 6 -14 -11 -15 -15 -2 -18 0 -8 6 8 5 9 11 3 15 -6 3 -13 0 -16 -6
-3 -7 -3 -1 -1 14 2 16 0 28 -5 28 -14 0 -8 -43 8 -62 7 -9 20 -14 27 -12 7 3
16 1 20 -5 4 -7 0 -8 -11 -4 -12 5 -15 3 -9 -6 6 -10 3 -11 -13 -2 -14 8 -23
8 -27 1 -4 -6 -1 -9 7 -8 8 2 12 -4 10 -14 -2 -10 2 -18 8 -18 6 0 9 4 6 8 -2
4 6 8 20 8 13 0 24 -4 24 -8 0 -5 -7 -8 -16 -6 -9 2 -20 -7 -25 -19 -6 -17 -5
-23 6 -23 9 0 12 6 9 18 -4 13 -3 14 4 4 5 -8 8 -27 6 -43 -2 -17 0 -28 5 -25
4 3 8 -7 7 -22 0 -18 4 -26 14 -24 11 3 11 0 1 -12 -8 -10 -9 -16 -1 -21 5 -3
10 -10 10 -16 0 -5 -8 -1 -18 8 -10 10 -14 21 -9 24 5 3 2 9 -6 12 -18 7 -17
-17 1 -35 7 -7 12 -18 12 -26 0 -7 3 -11 8 -9 4 2 15 -4 24 -15 10 -10 14 -18
9 -18 -6 0 -13 5 -17 11 -4 8 -9 7 -15 -2 -14 -23 -10 -31 11 -24 11 4 20 3
19 -2 -3 -20 2 -27 11 -13 8 12 10 11 7 -5 -3 -20 -22 -33 -22 -15 0 6 -3 10
-7 10 -25 0 4 -41 30 -43 12 -1 22 -5 22 -9 0 -8 -8 -7 -68 6 -13 3 -20 1 -17
-5 4 -5 10 -7 15 -4 5 3 18 -3 29 -14 14 -14 22 -16 31 -8 10 9 11 9 6 0 -3
-6 -3 -13 1 -16 5 -2 2 -2 -5 -1 -6 2 -12 -1 -12 -7 0 -6 -4 -8 -8 -5 -5 3 -9
-2 -9 -10 0 -10 4 -11 11 -4 17 17 29 11 15 -7 -12 -15 -12 -16 3 -10 20 7 34
-8 17 -19 -8 -5 -9 -3 -4 6 5 8 4 11 -3 7 -13 -9 -10 -30 6 -50 10 -11 9 -17
-1 -26 -8 -6 -18 -7 -22 -3 -5 4 -5 1 -1 -6 6 -10 11 -10 22 -1 10 8 14 8 14
0 0 -6 4 -11 8 -11 5 0 9 7 9 15 0 8 -4 12 -8 9 -4 -2 -6 5 -4 16 2 11 0 18
-4 16 -4 -3 -8 1 -8 9 0 8 6 16 12 19 8 3 11 -5 9 -20 -1 -14 5 -28 14 -34 12
-7 13 -9 3 -10 -10 0 -11 -4 -3 -12 6 -7 10 -17 10 -23 -1 -5 10 -16 23 -22
19 -10 20 -13 6 -13 -15 0 -16 -3 -7 -20 6 -11 15 -19 21 -17 6 1 13 -6 14
-16 3 -15 1 -16 -11 -6 -8 7 -14 7 -14 1 0 -11 32 -40 36 -32 1 3 6 1 11 -4 5
-5 2 -6 -6 -1 -9 5 -12 3 -9 -6 3 -8 10 -13 16 -12 11 3 11 -15 -1 -34 -5 -7
-5 -13 -1 -13 4 0 -1 -7 -12 -15 -14 -11 -15 -14 -3 -9 10 3 20 1 24 -5 3 -6
1 -11 -6 -11 -7 0 -10 -3 -6 -6 3 -3 11 -3 17 1 8 5 8 11 -1 21 -9 11 -8 14 5
14 10 0 15 -4 11 -10 -3 -5 6 -17 20 -26 22 -14 23 -18 11 -36 -16 -23 -11
-48 10 -48 8 0 14 -5 14 -11 0 -5 4 -8 9 -5 5 3 8 -2 7 -11 0 -9 6 -18 14 -20
12 -4 12 -3 2 5 -11 8 -11 10 0 15 8 3 14 -2 15 -13 1 -12 -8 -20 -24 -25 -14
-3 -23 -8 -21 -10 2 -3 18 -1 36 4 24 7 30 6 26 -4 -3 -8 -11 -12 -19 -9 -7 3
-16 -3 -19 -13 -6 -14 -5 -15 5 -6 8 8 18 9 31 2 20 -11 25 -39 6 -39 -6 0 -9
-3 -6 -6 4 -3 20 2 37 10 27 14 30 14 25 1 -3 -8 -10 -12 -15 -9 -5 3 -9 -2
-9 -11 0 -9 -4 -14 -8 -11 -5 3 -9 -1 -9 -9 0 -8 4 -12 9 -9 4 3 8 0 8 -6 0
-6 5 -8 11 -4 8 5 8 9 -1 14 -9 5 -9 9 -1 14 6 4 11 1 11 -6 0 -10 3 -9 11 2
9 12 10 11 4 -5 -4 -11 -8 -24 -9 -30 -1 -5 -6 -17 -11 -25 -7 -12 -6 -13 6
-3 8 6 17 11 21 10 3 -1 10 2 15 7 5 5 2 6 -6 1 -10 -6 -12 -4 -6 5 5 9 4 11
-3 6 -7 -4 -12 -5 -12 -2 0 3 9 10 19 16 14 7 22 7 27 -2 4 -6 3 -8 -3 -5 -6
4 -10 -7 -11 -24 0 -23 5 -33 19 -36 10 -3 19 -11 19 -17 0 -7 12 -11 30 -10
17 1 30 -2 30 -7 0 -5 -5 -9 -11 -9 -8 0 -7 -5 1 -15 7 -9 10 -18 6 -22 -3 -3
-6 0 -6 8 0 12 -2 11 -11 -1 -9 -13 -10 -12 -5 3 4 13 2 16 -7 11 -8 -5 -7 -2
2 9 12 15 11 17 -2 17 -11 0 -14 -7 -11 -22 3 -13 6 -29 6 -35 1 -9 5 -10 14
-2 9 7 17 4 28 -13 9 -12 16 -18 16 -12 0 5 -5 15 -12 22 -8 8 -8 12 -1 12 16
0 24 -27 18 -58 -5 -25 -5 -25 4 -4 6 12 18 22 28 21 15 0 15 -2 3 -7 -18 -8
-23 -42 -6 -39 6 1 10 -4 9 -10 -2 -7 0 -12 5 -12 21 4 24 -2 7 -14 -14 -11
-15 -16 -5 -22 8 -5 11 -4 7 2 -3 5 10 16 29 25 18 9 34 12 34 7 0 -5 -5 -9
-11 -9 -5 0 -7 -5 -4 -10 4 -6 10 -8 15 -5 5 3 11 1 15 -5 4 -6 12 -7 18 -3 7
4 6 -1 -2 -10 -13 -17 -15 -16 -36 3 -12 11 -25 20 -30 20 -4 0 2 -8 13 -19
12 -10 18 -21 14 -25 -4 -4 0 -6 8 -4 9 2 14 -3 12 -11 -2 -11 0 -12 11 -2 12
9 16 8 22 -6 5 -10 9 -22 9 -28 1 -5 11 -11 24 -11 23 -1 22 0 -7 27 -31 28
-40 49 -20 49 5 0 8 -4 4 -9 -5 -9 1 -17 41 -50 16 -13 16 -15 0 -26 -15 -12
-15 -13 0 -19 9 -3 20 -4 24 -1 5 3 11 1 15 -5 3 -5 1 -10 -4 -10 -6 0 -11 -5
-11 -11 0 -8 5 -8 15 1 19 16 1 42 -23 33 -9 -3 -14 -3 -11 1 9 9 49 16 48 8
-3 -20 2 -25 12 -12 8 11 9 9 3 -10 -4 -14 -14 -30 -22 -36 -13 -9 -13 -11 2
-11 9 0 16 4 16 9 0 4 9 -1 20 -12 11 -11 25 -20 31 -20 6 0 9 -8 7 -18 -3
-11 0 -19 7 -19 19 0 12 31 -9 43 -16 10 -16 12 -2 17 9 4 20 -1 25 -11 8 -12
10 -13 11 -3 0 8 3 11 6 8 4 -4 1 -13 -6 -22 -15 -18 -7 -19 23 -4 20 9 19 8
-2 -9 l-24 -19 26 0 c17 -1 24 4 20 11 -4 6 1 5 10 -2 9 -8 21 -11 26 -7 6 3
8 0 5 -8 -2 -7 -11 -14 -19 -14 -8 0 -11 5 -8 11 3 6 2 7 -2 3 -5 -4 -10 -14
-11 -22 -2 -14 24 -13 49 1 9 6 9 4 -1 -8 -9 -11 -10 -18 -2 -23 6 -3 7 -11 4
-17 -4 -6 -2 -8 4 -4 6 3 13 2 17 -4 3 -5 12 -10 18 -10 7 0 4 5 -5 11 -10 5
-15 16 -12 24 7 17 34 20 34 4 0 -5 -4 -7 -10 -4 -5 3 -10 2 -10 -4 0 -5 9
-13 20 -16 11 -3 20 -11 20 -16 0 -6 -6 -7 -12 -3 -8 4 -10 3 -5 -2 5 -5 16
-9 25 -9 10 -1 27 -6 40 -13 12 -7 22 -9 21 -5 -3 20 2 24 16 13 8 -7 15 -20
14 -29 0 -12 -2 -11 -9 4 -7 17 -8 15 -8 -11 1 -18 6 -31 14 -31 6 0 10 6 7
13 -2 6 1 15 6 19 6 3 8 12 4 18 -3 7 3 4 15 -6 11 -11 25 -16 31 -12 6 3 9 0
5 -8 -2 -7 -11 -14 -19 -14 -8 0 -12 4 -9 8 2 4 0 10 -6 14 -6 4 -9 -4 -8 -19
2 -18 6 -22 14 -15 8 6 16 4 25 -8 12 -15 12 -16 -4 -10 -11 4 -16 3 -12 -4 4
-6 13 -8 20 -5 7 2 19 -1 26 -7 11 -10 11 -9 1 4 -10 14 -10 18 4 23 21 8 24
8 24 -5 0 -5 -4 -8 -9 -5 -5 4 -7 -4 -4 -15 6 -20 7 -20 19 7 9 19 12 21 8 7
-4 -18 -2 -22 10 -17 9 3 13 11 9 17 -3 6 -1 7 5 3 15 -9 3 -36 -17 -36 -14 0
-14 -2 -1 -10 10 -6 16 -6 18 0 2 6 8 8 12 5 5 -3 6 -13 3 -23 -3 -9 -3 -14 1
-11 12 11 16 50 4 43 -6 -4 -5 4 2 17 16 31 25 39 17 16 -7 -20 22 -89 35 -81
4 3 8 10 8 15 0 6 -4 7 -10 4 -5 -3 -10 -2 -10 3 0 14 48 11 61 -4 6 -7 17
-10 25 -7 8 3 14 -1 14 -8 0 -11 3 -11 10 1 8 12 10 9 8 -10 -2 -14 -7 -29
-13 -33 -6 -5 -3 -7 8 -3 10 3 17 0 17 -7 0 -8 3 -8 9 2 5 8 11 9 15 3 4 -7
17 -7 36 -2 23 7 30 5 30 -6 0 -8 5 -14 11 -14 5 0 7 -6 3 -12 -6 -10 -4 -10
8 0 9 7 19 9 22 4 3 -5 15 -12 26 -15 11 -3 18 -1 14 4 -3 5 1 10 8 11 7 0 20
2 28 3 8 1 23 -3 33 -8 12 -5 24 -4 35 5 16 12 16 11 2 -6 -14 -18 -13 -18 8
-12 14 5 22 3 22 -4 0 -6 -4 -8 -10 -5 -5 3 -10 1 -10 -5 0 -6 -10 -4 -25 6
-13 8 -29 13 -34 10 -5 -4 -12 -2 -16 4 -3 5 -12 10 -18 10 -7 0 1 -9 17 -19
16 -11 36 -17 44 -13 10 3 13 1 8 -6 -6 -10 0 -10 44 0 10 2 14 -4 12 -17 -2
-15 -1 -17 6 -6 11 15 36 6 27 -10 -3 -5 2 -6 11 -2 13 5 15 3 9 -7 -5 -9 -4
-11 4 -6 6 4 9 11 6 16 -3 5 -1 11 5 15 6 3 13 -1 16 -10 5 -13 9 -14 15 -4
11 18 2 28 -21 24 -11 -2 -20 0 -20 5 0 5 12 8 28 7 17 -1 26 3 25 11 -2 6 2
12 7 12 11 0 13 -13 3 -24 -10 -10 -11 -46 -1 -46 4 0 8 9 8 19 0 18 27 37 38
26 3 -3 0 -5 -6 -5 -6 0 -9 -8 -6 -17 5 -15 4 -16 -5 -3 -8 12 -10 11 -9 -6 1
-11 8 -21 15 -21 6 0 9 5 6 10 -4 6 0 8 10 4 11 -4 17 -1 17 9 0 8 -4 12 -10
9 -6 -4 -7 1 -3 11 5 14 8 13 19 -7 10 -20 10 -27 -4 -44 -16 -19 -16 -19 2
-3 17 15 21 15 45 1 23 -14 23 -13 -4 11 -19 16 -23 24 -11 20 10 -4 22 -1 27
7 8 11 9 10 7 -5 -2 -10 3 -21 10 -23 8 -3 10 1 5 13 -4 11 -3 15 4 11 6 -4
14 -1 17 5 3 7 3 2 -1 -12 -5 -21 -4 -23 9 -12 9 7 24 9 33 5 14 -5 16 -3 9 8
-10 17 -15 43 -6 34 4 -4 7 -12 7 -18 0 -7 7 -12 15 -12 8 0 14 7 12 15 -3 13
-1 13 10 1 10 -10 10 -15 1 -18 -22 -8 -58 -42 -45 -43 6 0 12 5 12 10 0 12
26 14 33 3 2 -5 2 -3 1 4 -2 6 4 14 12 17 12 5 13 10 4 28 -10 21 -10 21 9 -2
14 -17 21 -20 21 -10 0 12 3 11 11 -2 5 -10 15 -18 21 -18 6 0 5 7 -3 18 -13
16 -12 16 4 3 15 -12 20 -12 26 -2 6 10 10 9 14 -3 4 -9 11 -16 17 -16 6 0 8
4 5 10 -4 6 1 7 12 3 15 -5 16 -3 6 8 -21 22 -14 30 7 9 22 -22 40 -26 40 -10
0 6 5 10 11 10 8 0 7 -5 -1 -15 -7 -9 -22 -13 -34 -10 -12 3 -16 2 -9 -1 7 -3
9 -13 6 -22 -4 -13 -3 -14 5 -3 6 8 15 10 23 5 20 -12 40 -14 33 -3 -7 12 9
11 24 -1 6 -6 10 -7 7 -4 -6 9 14 34 27 34 6 0 6 -6 -1 -14 -8 -10 -9 -16 -1
-21 5 -3 11 -4 11 -1 5 23 3 33 -10 49 -13 16 -13 17 2 11 9 -3 17 -9 17 -13
0 -4 11 -8 26 -9 14 -1 23 2 19 8 -3 6 -1 10 5 10 6 0 8 -11 6 -25 -3 -15 -1
-23 5 -20 5 4 6 11 3 17 -5 7 -1 9 9 5 10 -3 17 -2 17 2 0 5 -6 11 -12 14 -7
3 -4 5 7 6 51 2 55 4 50 25 -5 18 -4 17 8 -3 9 -15 16 -20 20 -12 4 8 5 7 3
-1 -2 -7 -13 -12 -24 -12 -12 1 -22 -3 -22 -8 0 -5 -5 -6 -12 -2 -7 4 -8 3 -4
-5 4 -6 12 -9 17 -6 5 4 18 8 30 10 15 3 19 0 15 -11 -3 -9 -1 -12 4 -9 6 3
10 15 10 25 0 10 5 22 10 25 6 4 7 11 4 17 -5 7 -2 8 5 3 9 -5 9 -11 3 -17 -7
-7 -6 -15 4 -26 11 -10 19 -11 26 -4 6 6 6 12 -3 17 -8 6 -10 4 -4 -5 5 -9 4
-11 -4 -6 -16 11 -3 26 16 19 11 -4 14 -3 9 6 -4 6 -4 11 1 10 4 -1 11 0 16 1
4 1 13 3 20 4 6 0 12 6 12 13 0 6 4 15 9 20 5 5 6 3 2 -5 -5 -8 3 -17 22 -25
16 -6 27 -18 25 -24 -3 -7 0 -13 6 -13 6 0 10 5 8 12 -1 7 8 12 21 13 20 0 28
13 15 25 -4 3 -3 0 0 -6 4 -7 -4 -10 -21 -9 -21 1 -26 6 -24 20 3 17 2 17 -15
4 -17 -13 -17 -13 -4 4 14 18 15 18 31 -4 11 -14 20 -18 24 -11 4 6 13 9 21 6
10 -4 12 1 9 18 -4 21 -4 21 5 3 7 -14 10 -15 10 -5 1 9 4 11 9 5 9 -13 62
-19 62 -8 0 5 -6 15 -12 23 -11 12 -10 12 4 1 15 -11 19 -11 24 3 4 11 13 15
25 11 12 -4 19 -2 19 6 0 7 6 5 14 -6 13 -18 51 -32 40 -14 -3 5 -9 7 -14 4
-4 -3 -10 4 -13 16 -4 16 -3 18 8 9 7 -6 22 -12 33 -15 15 -3 19 2 16 21 -1
13 2 22 7 18 5 -3 9 0 9 5 0 6 5 11 11 11 5 0 8 -4 5 -8 -2 -4 3 -13 13 -19
14 -9 18 -8 18 3 0 7 -5 10 -11 7 -6 -3 -8 -3 -4 2 4 4 3 13 -2 20 -7 8 -5 12
5 12 8 0 12 -4 9 -9 -5 -7 11 -12 19 -5 2 1 10 -2 18 -8 8 -5 6 -1 -6 9 -20
19 -20 19 0 11 11 -4 26 -8 33 -8 7 0 11 -7 7 -16 -5 -15 -4 -15 7 0 7 9 19
15 26 13 7 -1 8 0 2 3 -15 7 -1 23 15 16 8 -3 15 -1 15 5 0 11 -18 11 -37 -1
-8 -5 -13 -4 -13 2 0 6 5 11 11 11 5 0 7 6 3 13 -5 9 -4 9 5 1 15 -14 54 -6
45 8 -4 7 0 7 12 0 11 -5 25 -7 33 -4 9 3 11 0 6 -9 -5 -8 -4 -10 0 -6 14 12
15 37 2 34 -7 -1 -14 -5 -17 -8 -3 -4 -12 0 -20 9 -13 14 -12 15 3 9 10 -4 17
-2 17 6 0 8 4 6 10 -3 9 -13 14 -8 11 12 0 4 9 5 20 3 16 -3 19 0 15 13 -4 10
2 7 13 -7 l19 -24 11 21 c7 12 19 19 29 17 10 -2 25 1 33 6 10 6 10 9 2 9 -7
0 -13 5 -13 10 0 6 8 10 18 8 11 -2 17 3 16 15 -1 9 5 17 13 17 8 0 11 -5 7
-12 -4 -7 -3 -8 5 -4 6 4 18 3 25 -3 9 -8 13 -7 13 4 0 8 -4 12 -7 10 -4 -3
-7 11 -7 30 1 24 4 31 13 25 14 -13 24 -2 17 18 -5 12 -1 11 14 -4 11 -10 19
-23 18 -29 -1 -5 0 -7 2 -2 3 4 8 5 12 3 4 -3 8 1 8 9 0 8 -5 13 -11 12 -5 -1
-11 7 -13 18 -1 11 0 14 3 8 3 -7 12 -13 20 -13 8 0 14 -4 14 -10 0 -5 5 -10
11 -10 8 0 8 5 -1 15 -10 12 -9 16 3 21 9 3 21 2 28 -2 8 -4 9 -3 5 4 -4 7 -2
12 3 12 6 0 11 4 11 8 0 5 -7 9 -15 9 -8 0 -12 -4 -9 -9 3 -4 0 -8 -5 -8 -6 0
-11 7 -11 15 0 10 9 14 30 11 23 -3 30 0 28 13 -2 9 -7 20 -13 24 -6 5 -4 7 5
4 8 -2 14 -11 12 -18 -2 -8 0 -11 4 -7 4 4 14 2 22 -5 11 -8 10 -4 -3 16 -10
15 -15 30 -11 34 3 3 6 1 6 -6 0 -7 5 -9 10 -6 6 4 7 11 4 17 -4 6 -2 8 4 4 6
-3 13 3 17 14 4 11 11 18 16 15 5 -4 9 -1 9 4 0 6 5 10 12 8 7 -1 12 4 13 12
0 23 21 23 31 1 9 -20 9 -20 21 -2 7 13 8 23 1 33 -8 11 -9 10 -4 -4 4 -11 2
-16 -5 -12 -13 8 -6 30 9 31 25 3 27 5 13 13 -9 6 -10 11 -2 15 6 4 11 2 11
-3 0 -6 4 -11 10 -11 5 0 9 4 7 9 -1 5 4 18 12 29 14 20 14 20 33 -1 11 -14
17 -16 16 -7 -2 8 4 14 12 15 8 0 15 9 15 20 0 11 6 19 12 18 7 -2 12 3 10 10
-1 6 3 11 9 10 7 -1 10 11 8 32 -1 19 1 33 4 32 4 -1 9 3 10 8 10 30 25 35 45
18 11 -10 17 -12 13 -5 -4 6 -3 12 2 12 5 0 10 11 10 25 0 13 -4 22 -9 19 -5
-3 -9 -3 -9 0 0 9 54 33 70 31 8 -1 9 0 3 2 -7 3 -13 10 -13 16 0 7 -4 6 -10
-3 -5 -8 -10 -10 -10 -4 0 18 12 24 30 14 14 -8 17 -5 16 18 -2 27 31 75 44
67 5 -3 11 2 14 11 3 8 2 12 -4 9 -6 -3 -10 -1 -10 4 0 14 23 14 37 0 7 -7 12
-6 16 5 4 10 1 13 -8 10 -9 -4 -13 2 -11 19 3 26 35 76 50 77 5 0 3 -6 -3 -14
-8 -10 -9 -16 -1 -21 9 -6 14 1 11 17 0 5 7 8 17 9 13 0 11 3 -6 10 l-23 9 23
32 c13 18 23 37 23 42 0 5 7 11 15 13 13 4 13 3 0 -6 -9 -7 -10 -11 -3 -11 16
0 26 17 14 25 -12 7 7 55 21 55 5 0 1 -11 -8 -25 -15 -23 -15 -25 -1 -19 9 3
15 11 14 17 -1 7 4 11 11 10 17 -4 15 14 -3 21 -12 4 -11 12 8 50 12 25 29 45
37 46 12 0 12 2 2 9 -11 7 -9 13 10 31 12 13 18 20 11 16 -8 -5 -9 1 0 24 11
29 27 34 57 15 13 -8 13 -6 2 8 -8 9 -17 15 -20 14 -8 -2 -12 7 -12 24 0 5 6
7 13 3 7 -5 6 0 -3 11 -10 13 -11 16 -2 11 9 -5 13 -3 11 5 -3 20 12 69 21 69
4 0 8 6 7 13 -1 34 4 57 13 57 5 0 7 -7 4 -15 -4 -8 -2 -15 3 -15 12 0 13 33
2 40 -5 3 -3 25 4 48 7 24 15 40 18 37 3 -3 6 7 7 22 1 26 7 60 13 73 2 6 3
10 13 72 5 26 11 46 15 44 3 -2 5 14 3 36 -3 22 0 38 4 35 5 -3 9 16 8 41 -1
26 5 58 13 71 9 13 10 21 5 17 -8 -5 -9 16 -6 66 8 103 10 329 3 334 -8 5 -5
37 6 53 5 10 4 12 -3 7 -8 -5 -12 4 -13 26 -4 77 -5 94 -12 105 -4 6 -9 38
-11 70 -2 32 -7 66 -11 75 -4 10 -8 29 -9 43 0 14 -4 25 -7 25 -3 0 -6 6 -6
13 0 6 -8 38 -17 71 -10 32 -15 65 -12 73 3 8 1 11 -4 8 -6 -3 -10 0 -10 7 0
7 -13 47 -29 88 -16 41 -31 84 -33 95 -1 11 -5 22 -8 25 -6 6 -50 99 -50 106
0 3 5 2 12 -2 7 -4 8 -3 4 5 -4 6 -11 9 -16 6 -5 -3 -13 10 -20 29 -6 18 -26
59 -45 90 -19 31 -35 60 -36 64 -9 28 -187 289 -224 328 -5 6 -35 39 -65 74
-50 57 -124 131 -220 221 -48 45 -241 188 -320 237 -196 122 -453 234 -660
286 -36 10 -78 21 -95 26 -16 4 -50 12 -75 16 -25 4 -47 8 -50 9 -3 1 -32 5
-65 10 -33 4 -69 10 -80 12 -26 5 -472 13 -476 8z m-2272 -2567 c-2 -7 0 -21
5 -32 8 -14 7 -16 -2 -11 -7 4 -16 1 -21 -6 -6 -9 -9 -10 -9 -2 0 6 4 14 9 18
6 3 8 14 6 25 -2 11 1 20 6 20 6 0 9 -6 6 -12z m7 -154 c8 -22 8 -24 -6 -24
-6 0 -8 3 -5 7 4 3 2 12 -4 20 -7 8 -8 13 -1 13 5 0 13 -7 16 -16z m172 -670
c1 -9 0 -13 -4 -10 -3 4 -7 14 -8 22 -1 9 0 13 4 10 3 -4 7 -14 8 -22z m159
-344 c3 -5 1 -10 -4 -10 -6 0 -11 5 -11 10 0 6 2 10 4 10 3 0 8 -4 11 -10z
m26 -93 c-8 -8 -14 -8 -22 0 -8 8 -7 13 2 18 8 5 10 4 5 -3 -4 -7 -2 -12 3
-12 6 0 11 8 12 18 0 11 2 13 6 4 3 -8 0 -19 -6 -25z m193 -246 c3 -5 -1 -11
-9 -14 -9 -4 -12 -1 -8 9 6 16 10 17 17 5z m3806 -16 c0 -12 -19 -12 -23 0 -4
9 -1 12 9 8 7 -3 14 -7 14 -8z m-100 -105 c-21 -30 -46 -41 -37 -17 2 6 10 11
17 9 8 -2 10 3 6 13 -3 9 -2 13 4 10 6 -3 10 -1 10 4 0 6 5 11 11 11 6 0 1
-13 -11 -30z m-24 -52 c4 -7 4 -10 -1 -6 -4 4 -13 3 -20 -2 -8 -7 -12 -5 -12
5 0 18 23 20 33 3z m-3510 -27 c8 7 14 7 14 1 0 -19 -28 -21 -44 -3 -9 10 -16
22 -16 27 0 4 7 -2 16 -14 13 -18 19 -21 30 -11z m-6 19 c0 -5 -2 -10 -4 -10
-3 0 -8 5 -11 10 -3 6 -1 10 4 10 6 0 11 -4 11 -10z m245 -208 c-3 -3 -11 0
-18 7 -9 10 -8 11 6 5 10 -3 15 -9 12 -12z m-1 -16 c18 2 18 2 2 -14 -15 -15
-18 -15 -26 -2 -11 18 -13 41 -2 24 4 -6 16 -10 26 -8z m2918 -35 c8 11 9 11
6 1 -4 -16 -22 -18 -24 -2 -2 7 -1 6 3 -1 4 -8 8 -7 15 2z m-2754 -76 c-3 -3
-9 2 -12 12 -6 14 -5 15 5 6 7 -7 10 -15 7 -18z m2646 -17 c-3 -4 -11 -5 -19
-1 -21 7 -19 12 4 10 11 0 18 -5 15 -9z m-2654 -8 c0 -5 -2 -10 -4 -10 -3 0
-8 5 -11 10 -3 6 -1 10 4 10 6 0 11 -4 11 -10z m77 -16 c-3 -3 -12 -4 -19 -1
-8 3 -5 6 6 6 11 1 17 -2 13 -5z m2528 -4 c2 -4 -3 -7 -13 -6 -10 0 -17 -6
-16 -15 1 -9 -5 -16 -12 -16 -7 0 -11 4 -8 9 3 4 1 8 -5 8 -6 0 -18 -12 -26
-27 -9 -16 -14 -21 -11 -12 2 9 -1 22 -7 28 -9 9 -8 10 7 5 14 -5 17 -4 12 5
-4 6 -4 11 1 10 20 -4 44 2 39 9 -2 4 4 8 14 9 11 1 22 -2 25 -7z m-2485 -21
c0 -13 -18 -20 -25 -9 -4 6 -11 8 -16 5 -5 -4 -9 -2 -9 3 0 5 11 10 25 10 14
0 25 -4 25 -9z m133 -69 c-7 -26 -19 -34 -29 -19 -4 7 -3 9 3 6 6 -4 13 2 16
13 3 11 7 20 10 20 3 0 3 -9 0 -20z m135 -54 c-7 -8 -15 -12 -17 -11 -5 6 10
25 20 25 5 0 4 -6 -3 -14z m1935 0 c5 -12 -2 -14 -31 -7 -2 1 0 6 3 11 9 14
22 12 28 -4z m-1866 -21 c0 -8 -4 -12 -9 -9 -5 3 -6 10 -3 15 9 13 12 11 12
-6z m108 -35 c-3 -5 -12 -10 -18 -10 -7 0 -6 4 3 10 19 12 23 12 15 0z m1602
-5 c0 -8 -4 -12 -9 -9 -5 3 -6 10 -3 15 9 13 12 11 12 -6z m-1644 -15 c-3 -11
-9 -17 -15 -14 -5 3 -4 12 3 20 16 19 18 18 12 -6z m91 -9 c-2 -3 -12 3 -22
13 -16 17 -16 18 5 5 12 -7 20 -15 17 -18z m-37 -6 c4 -4 3 -5 -4 -1 -6 3 -14
2 -18 -4 -4 -6 -11 -8 -16 -4 -5 3 -7 9 -4 14 6 10 31 7 42 -5z m84 -19 c11
-1 18 -5 17 -11 -2 -5 -10 -9 -18 -7 -8 2 -20 4 -27 4 -7 1 -14 7 -17 14 -3 8
0 11 10 7 9 -3 24 -6 35 -7z m1354 4 c3 -6 -1 -7 -9 -4 -18 7 -21 14 -7 14 6
0 13 -4 16 -10z m-258 -35 c0 -8 -4 -12 -9 -9 -5 3 -6 10 -3 15 9 13 12 11 12
-6z m-885 -22 c-10 -4 -8 -9 5 -19 10 -7 14 -13 8 -13 -5 -1 -21 8 -34 18 -18
14 -21 20 -11 26 9 6 11 4 5 -5 -5 -8 -3 -11 6 -8 8 3 13 12 11 19 -3 12 -1
12 10 0 11 -11 11 -14 0 -18z m188 -7 c0 -3 -4 -8 -10 -11 -5 -3 -10 -1 -10 4
0 6 5 11 10 11 6 0 10 -2 10 -4z m60 0 c0 -3 -4 -8 -10 -11 -5 -3 -10 -1 -10
4 0 6 5 11 10 11 6 0 10 -2 10 -4z m364 -40 c-6 -16 -24 -13 -24 5 0 6 5 7 10
4 6 -3 10 -1 10 6 0 7 2 10 5 7 3 -3 3 -13 -1 -22z m-39 -15 c-3 -6 -11 -8
-17 -5 -6 4 -5 9 3 15 16 10 23 4 14 -10z"/>
<path d="M715 4210 c-3 -5 -1 -10 4 -10 6 0 11 5 11 10 0 6 -2 10 -4 10 -3 0
-8 -4 -11 -10z"/>
<path d="M635 4110 c-3 -5 -1 -10 4 -10 6 0 11 5 11 10 0 6 -2 10 -4 10 -3 0
-8 -4 -11 -10z"/>
<path d="M515 3950 c-3 -5 -1 -10 4 -10 6 0 11 5 11 10 0 6 -2 10 -4 10 -3 0
-8 -4 -11 -10z"/>
<path d="M390 3710 c0 -5 5 -10 11 -10 5 0 7 5 4 10 -3 6 -8 10 -11 10 -2 0
-4 -4 -4 -10z"/>
<path d="M370 3675 c-14 -8 -20 -14 -14 -15 5 0 19 7 30 15 24 18 16 19 -16 0z"/>
<path d="M326 3609 c4 -8 30 -6 38 2 3 3 -5 5 -19 5 -13 0 -22 -3 -19 -7z"/>
<path d="M318 3563 c7 -3 16 -2 19 1 4 3 -2 6 -13 5 -11 0 -14 -3 -6 -6z"/>
<path d="M293 3494 c-3 -8 -2 -19 3 -24 5 -5 9 1 9 16 0 28 -3 30 -12 8z"/>
<path d="M272 3451 c2 -7 7 -12 11 -12 12 1 9 15 -3 20 -7 2 -11 -2 -8 -8z"/>
<path d="M265 3416 c10 -14 19 -26 22 -26 7 0 -17 39 -28 46 -6 3 -3 -5 6 -20z"/>
<path d="M250 3390 c0 -5 5 -10 11 -10 5 0 7 5 4 10 -3 6 -8 10 -11 10 -2 0
-4 -4 -4 -10z"/>
<path d="M250 3363 c5 -2 8 -9 5 -13 -3 -5 -1 -11 4 -14 5 -4 8 2 7 11 -2 9
-8 18 -15 19 -6 1 -7 0 -1 -3z"/>
<path d="M215 3310 c3 -5 8 -10 11 -10 2 0 4 5 4 10 0 6 -5 10 -11 10 -5 0 -7
-4 -4 -10z"/>
<path d="M237 3293 c-10 -9 -9 -23 1 -23 5 0 9 7 9 15 0 17 -1 18 -10 8z"/>
<path d="M220 3250 c-13 -9 -13 -10 0 -10 13 0 13 -1 0 -11 -12 -8 -12 -10 -1
-7 8 2 15 12 17 21 3 20 3 19 -16 7z"/>
<path d="M193 3205 c0 -8 4 -12 9 -9 5 3 6 10 3 15 -9 13 -12 11 -12 -6z"/>
<path d="M200 3179 c-11 -8 -12 -12 -2 -16 8 -3 6 -10 -8 -21 -14 -12 -17 -21
-10 -32 14 -23 35 4 35 46 0 18 0 34 0 34 0 0 -7 -5 -15 -11z m4 -54 c-4 -8
-10 -12 -15 -9 -11 6 -2 24 11 24 5 0 7 -7 4 -15z"/>
<path d="M165 3069 c-4 -6 -5 -12 -2 -15 2 -3 7 2 10 11 7 17 1 20 -8 4z"/>
<path d="M136 2973 c-6 -14 -5 -15 5 -6 7 7 10 15 7 18 -3 3 -9 -2 -12 -12z"/>
<path d="M163 2943 c-15 -5 -17 -23 -4 -23 5 0 11 7 15 15 3 8 4 15 3 14 -1 0
-8 -3 -14 -6z"/>
<path d="M119 2783 c-13 -16 -12 -17 4 -4 9 7 17 15 17 17 0 8 -8 3 -21 -13z"/>
<path d="M118 2673 c7 -3 16 -2 19 1 4 3 -2 6 -13 5 -11 0 -14 -3 -6 -6z"/>
<path d="M150 2330 c0 -5 5 -10 10 -10 6 0 10 5 10 10 0 6 -4 10 -10 10 -5 0
-10 -4 -10 -10z"/>
<path d="M183 2064 c4 -4 1 -14 -6 -22 -10 -13 -9 -14 11 -3 27 14 27 17 5 25
-10 4 -14 4 -10 0z"/>
<path d="M180 2016 c0 -2 9 -6 20 -9 11 -3 20 -1 20 4 0 5 -9 9 -20 9 -11 0
-20 -2 -20 -4z"/>
<path d="M175 1990 c3 -5 8 -10 11 -10 2 0 4 5 4 10 0 6 -5 10 -11 10 -5 0 -7
-4 -4 -10z"/>
<path d="M5017 1945 c-4 -8 -3 -16 1 -19 4 -3 9 4 9 15 2 23 -3 25 -10 4z"/>
<path d="M213 1895 c0 -8 4 -12 9 -9 5 3 6 10 3 15 -9 13 -12 11 -12 -6z"/>
<path d="M250 1749 c0 -5 5 -7 10 -4 6 3 10 8 10 11 0 2 -4 4 -10 4 -5 0 -10
-5 -10 -11z"/>
<path d="M266 1692 c-3 -5 1 -9 9 -9 8 0 12 4 9 9 -3 4 -7 8 -9 8 -2 0 -6 -4
-9 -8z"/>
<path d="M275 1661 c-3 -5 -2 -12 3 -15 5 -3 9 1 9 9 0 17 -3 19 -12 6z"/>
<path d="M4900 1610 c-9 -6 -10 -10 -3 -10 6 0 15 5 18 10 8 12 4 12 -15 0z"/>
<path d="M347 1593 c-4 -3 -2 -12 4 -20 9 -9 8 -13 0 -13 -6 0 -11 -5 -11 -11
0 -5 4 -8 9 -4 5 3 13 0 17 -6 3 -6 1 -15 -6 -19 -9 -5 -9 -9 -1 -14 6 -4 11
-2 11 4 0 6 4 9 10 5 5 -3 7 -12 4 -19 -3 -7 2 -21 11 -30 9 -9 14 -20 10 -25
-3 -5 0 -13 6 -16 5 -4 8 -13 5 -21 -3 -8 -1 -14 4 -14 6 0 10 7 10 16 0 10 5
12 13 7 6 -4 -3 11 -21 34 -18 23 -31 45 -30 50 1 4 -3 18 -10 31 -7 12 -10
22 -6 22 4 0 0 8 -9 18 -10 10 -14 22 -10 25 3 4 4 7 1 7 -2 0 -8 -3 -11 -7z"/>
<path d="M4840 1510 c-6 -11 -8 -20 -6 -20 3 0 10 9 16 20 6 11 8 20 6 20 -3
0 -10 -9 -16 -20z"/>
<path d="M356 1472 c-3 -5 1 -9 9 -9 8 0 12 4 9 9 -3 4 -7 8 -9 8 -2 0 -6 -4
-9 -8z"/>
<path d="M4774 1368 c3 -12 0 -18 -9 -18 -7 0 -16 -4 -19 -9 -4 -5 3 -7 14 -4
26 7 31 16 18 33 -8 12 -9 12 -4 -2z"/>
<path d="M472 1325 c3 -29 5 -30 23 -12 11 11 10 15 -6 25 -17 11 -19 9 -17
-13z"/>
<path d="M4705 1280 c-3 -5 -3 -10 2 -10 4 0 2 -4 -6 -9 -7 -5 -9 -11 -5 -14
5 -3 15 1 22 9 8 9 9 14 2 14 -6 0 -8 5 -5 10 3 6 4 10 1 10 -3 0 -8 -4 -11
-10z"/>
<path d="M517 1220 c10 -11 19 -20 21 -20 1 0 -2 9 -8 20 -6 11 -15 20 -20 20
-6 0 -2 -9 7 -20z"/>
<path d="M4670 1181 c0 -6 4 -13 10 -16 6 -3 7 1 4 9 -7 18 -14 21 -14 7z"/>
<path d="M4622 1157 c-16 -19 -1 -39 16 -21 10 11 10 14 0 15 -7 0 -4 4 7 9
15 7 16 9 4 9 -9 1 -21 -5 -27 -12z"/>
<path d="M576 1138 c3 -5 10 -6 15 -3 13 9 11 12 -6 12 -8 0 -12 -4 -9 -9z"/>
<path d="M4553 1037 c-2 -18 -1 -18 11 -2 8 11 18 15 26 10 8 -5 11 -4 6 3
-11 18 -42 10 -43 -11z"/>
<path d="M4485 991 c-3 -6 5 -15 17 -21 21 -10 21 -10 6 3 -10 8 -15 17 -11
20 3 4 4 7 0 7 -3 0 -8 -4 -12 -9z"/>
<path d="M700 983 c0 -7 5 -15 10 -18 6 -4 8 -11 5 -16 -4 -5 -1 -9 4 -9 15 0
13 11 -4 34 -8 11 -15 15 -15 9z"/>
<path d="M4473 934 c0 -17 2 -22 8 -13 4 7 6 16 3 20 -2 4 2 10 8 12 9 4 7 6
-3 6 -11 1 -16 -7 -16 -25z"/>
<path d="M766 892 c-3 -5 1 -9 9 -9 8 0 12 4 9 9 -3 4 -7 8 -9 8 -2 0 -6 -4
-9 -8z"/>
<path d="M4340 825 c-10 -12 -10 -15 1 -15 12 0 12 -2 0 -9 -7 -5 -9 -11 -4
-14 5 -3 15 3 22 15 10 16 10 18 0 12 -9 -5 -10 -2 -6 9 8 21 3 22 -13 2z"/>
<path d="M4305 780 c-3 -5 -5 -10 -3 -11 33 -8 38 -7 27 7 -14 17 -16 17 -24
4z"/>
<path d="M874 752 c4 -3 14 -7 22 -8 9 -1 13 0 10 4 -4 3 -14 7 -22 8 -9 1
-13 0 -10 -4z"/>
<path d="M4241 743 c4 -14 -13 -43 -21 -38 -5 3 -20 -7 -34 -22 -25 -26 -26
-44 -3 -42 9 0 8 2 -1 6 -6 2 -10 9 -7 13 3 5 13 6 22 3 12 -5 15 -2 10 10 -3
9 -2 19 3 22 6 4 10 1 10 -5 0 -15 34 19 36 36 1 8 -2 17 -7 20 -5 3 -9 2 -8
-3z"/>
<path d="M3985 530 c-4 -6 -11 -7 -17 -4 -6 4 -6 -2 1 -15 7 -11 15 -21 18
-21 3 0 3 3 0 6 -3 4 -2 15 4 25 10 20 5 27 -6 9z"/>
<path d="M3915 451 c-3 -5 -2 -12 3 -15 5 -3 9 1 9 9 0 17 -3 19 -12 6z"/>
<path d="M1358 413 c7 -3 16 -2 19 1 4 3 -2 6 -13 5 -11 0 -14 -3 -6 -6z"/>
<path d="M3756 392 c-4 -7 -2 -12 4 -12 6 0 8 -5 4 -12 -5 -9 -2 -9 9 1 18 14
23 26 8 17 -5 -4 -11 -1 -13 6 -3 9 -6 9 -12 0z"/>
<path d="M3690 310 c0 -5 5 -10 11 -10 5 0 7 5 4 10 -3 6 -8 10 -11 10 -2 0
-4 -4 -4 -10z"/>
<path d="M1715 270 c10 -11 20 -20 22 -20 2 0 -1 9 -7 20 -6 11 -16 20 -22 20
-6 0 -3 -9 7 -20z"/>
<path d="M3486 271 c-4 -5 -2 -12 4 -16 6 -4 8 -10 5 -15 -3 -5 0 -12 7 -16 7
-4 10 -4 6 1 -4 4 -3 14 2 20 7 9 6 16 -4 24 -9 8 -16 8 -20 2z"/>
<path d="M3550 271 c0 -6 4 -12 8 -15 5 -3 9 1 9 9 0 8 -4 15 -9 15 -4 0 -8
-4 -8 -9z"/>
<path d="M1753 255 c0 -8 4 -15 9 -15 4 0 8 4 8 9 0 6 -4 12 -8 15 -5 3 -9 -1
-9 -9z"/>
<path d="M1695 250 c3 -5 8 -10 11 -10 2 0 4 5 4 10 0 6 -5 10 -11 10 -5 0 -7
-4 -4 -10z"/>
<path d="M3350 225 c-7 -8 -9 -15 -5 -15 4 0 2 -6 -4 -14 -8 -10 -9 -16 -1
-21 6 -4 9 -2 8 4 -2 5 5 16 14 23 11 8 15 18 9 26 -6 10 -10 10 -21 -3z"/>
<path d="M3393 218 c1 -15 6 -23 11 -18 4 4 4 16 -2 26 -9 16 -10 14 -9 -8z"/>
<path d="M1834 192 c4 -3 14 -7 22 -8 9 -1 13 0 10 4 -4 3 -14 7 -22 8 -9 1
-13 0 -10 -4z"/>
<path d="M3255 182 c-8 -21 -3 -22 17 -2 14 13 15 17 3 17 -8 0 -17 -7 -20
-15z"/>
<path d="M3295 179 c-4 -6 -5 -12 -2 -15 2 -3 7 2 10 11 7 17 1 20 -8 4z"/>
<path d="M3116 172 c-4 -7 -11 -10 -16 -7 -4 3 -14 -3 -21 -12 -12 -15 -12
-16 3 -10 18 6 42 -15 30 -28 -4 -5 -1 -5 6 -1 7 4 10 11 7 16 -7 11 20 32 30
22 5 -4 5 -1 1 6 -4 7 -11 10 -16 7 -4 -3 -10 0 -12 7 -3 9 -6 9 -12 0z m14
-16 c0 -3 -4 -8 -10 -11 -5 -3 -10 -1 -10 4 0 6 5 11 10 11 6 0 10 -2 10 -4z"/>
<path d="M2526 105 c-3 -10 0 -12 11 -8 12 5 14 3 8 -8 -7 -12 -6 -12 7 -1 13
10 17 10 21 0 4 -9 6 -9 6 -1 2 24 -44 39 -53 18z"/>
<path d="M2610 109 c0 -5 -4 -8 -8 -5 -5 3 -9 -1 -9 -8 0 -20 23 -15 24 6 1
10 0 18 -3 18 -2 0 -4 -5 -4 -11z"/>
<path d="M2830 110 c0 -6 7 -10 15 -10 8 0 15 2 15 4 0 2 -7 6 -15 10 -8 3
-15 1 -15 -4z"/>
<path d="M2429 93 c-13 -16 -12 -17 4 -4 16 13 21 21 13 21 -2 0 -10 -8 -17
-17z"/>
<path d="M2655 100 c3 -5 8 -10 11 -10 2 0 4 5 4 10 0 6 -5 10 -11 10 -5 0 -7
-4 -4 -10z"/>
<path d="M2630 90 c0 -5 5 -10 11 -10 5 0 7 5 4 10 -3 6 -8 10 -11 10 -2 0 -4
-4 -4 -10z"/>
</g>
</svg>
